PathFileType	4	(X/Y/Z)	F:\MotionCapture\20160217\3\Generated_files\EMG_Fprce_test06-Dynamic.trc
DataRate	CameraRate	NumFrames	NumMarkers	Units	OrigDataRate	OrigDataStartFrame	OrigNumFrames
120.00	120.00	       8	39	mm	120.00	1	       657
Frame#	Time	Top.Head			Front.Head			Rear.Head			R.Shoulder			R.Offset			R.Elbow			R.Wrist			L.Shoulder			L.Elbow			L.Wrist			R.ASIS			L.ASIS			V.Sacral			R.Thigh			R.Knee			R.Shank			R.Ankle			R.Heel			R.Toe			L.Thigh			L.Knee			L.Shank			L.Ankle			L.Heel			L.Toe			R1			R2			R3			R4			R5			R6			R7			L1			L2			L3			L4			L5			L6			L7			V_Mid_ASIS			V_Pelvis_Origin			V_R.Hip_JC			V_L.Hip_JC			V_R.Knee_JC			V_L.Knee_JC			V_R.Ankle_JC			V_L.Ankle_JC			V_Mid_Hip			V_Mid_Shoulder			V_R.Hand			V_L.Hand			V_R.Toe_Offset_Static			V_L.Toe_Offset_Static			V_R.Toe_Offset			V_L.Toe_Offset			
		X1	Y1	Z1	X2	Y2	Z2	X3	Y3	Z3	X4	Y4	Z4	X5	Y5	Z5	X6	Y6	Z6	X7	Y7	Z7	X8	Y8	Z8	X9	Y9	Z9	X10	Y10	Z10	X11	Y11	Z11	X12	Y12	Z12	X13	Y13	Z13	X14	Y14	Z14	X15	Y15	Z15	X16	Y16	Z16	X17	Y17	Z17	X18	Y18	Z18	X19	Y19	Z19	X20	Y20	Z20	X21	Y21	Z21	X22	Y22	Z22	X23	Y23	Z23	X24	Y24	Z24	X25	Y25	Z25	X26	Y26	Z26	X27	Y27	Z27	X28	Y28	Z28	X29	Y29	Z29	X30	Y30	Z30	X31	Y31	Z31	X32	Y32	Z32	X33	Y33	Z33	X34	Y34	Z34	X35	Y35	Z35	X36	Y36	Z36	X37	Y37	Z37	X38	Y38	Z38	X39	Y39	Z39	

1	0.000	2632.45239	106.74146	1741.12622	2510.81738	107.29292	1671.12756	2731.98730	97.40900	1660.43286	2652.41187	302.52158	1429.45972	2775.28101	31.73715	1280.54553	2674.33472	393.66068	1101.04199	2557.97021	389.04654	866.55463	2622.47607	-108.49827	1429.42615	2606.32397	-187.25798	1098.83984	2492.13647	-147.45842	870.96753	2563.92749	258.90704	960.58868	2549.91602	-32.54986	954.75305	2781.11353	101.47469	951.97314	2541.11279	228.41049	578.94110	2617.82520	269.51236	475.91446	2640.39209	205.64027	239.40921	2714.78320	280.96432	83.42230	2777.97754	216.16345	51.21881	2567.81128	270.21231	46.68618	2521.54932	8.57437	628.75665	2623.33521	-46.91663	473.83502	2619.59644	24.37239	332.05460	2704.99023	-43.41672	69.06240	2769.03052	10.89761	53.60108	2563.58228	-43.10298	47.32219	2518.82056	253.05984	44.60256	2560.89722	233.48982	53.02797	2656.53979	193.53180	59.55441	2730.38208	188.90695	47.00696	2750.89551	261.11002	53.73305	2676.30493	292.39276	44.91649	2609.47046	313.44885	43.43423	2517.28857	-17.55967	41.41703	2552.07666	-4.06608	50.45480	2645.49609	40.86403	52.65621	2729.34741	41.97301	51.01676	2743.01099	-29.45032	52.81638	2669.68677	-59.69661	42.13094	2606.08276	-75.04658	45.18729																																																	2521.51978	280.90482	3.60241	5428.19922	-547.47797	-462.05264	2452.05664	-119.34644	819.62933	4279.45801	-569.45306	694.86658	
2	0.008	2631.88843	106.06354	1741.04382	2510.45044	106.68366	1670.98975	2731.83716	97.23986	1660.49927	2652.20142	302.45581	1429.49304	2775.28076	31.83740	1280.54028	2674.27710	393.72601	1101.17896	2558.20557	389.54041	866.27899	2622.63330	-108.59720	1429.30408	2606.89136	-187.15343	1098.83179	2493.02954	-148.13312	870.62781	2564.22900	258.73792	960.38434	2550.20288	-32.75301	954.80774	2781.08667	101.52840	951.93140	2541.23633	228.39243	578.86493	2617.59424	269.33865	475.87881	2640.33350	205.54500	239.34003	2714.55371	282.15677	82.87079	2777.96509	216.16298	51.21427	2567.78955	270.15613	46.69438	2521.46411	8.58481	628.96960	2623.18286	-46.96451	473.80173	2619.60303	24.14941	331.92969	2704.96533	-43.43918	69.06987	2769.01831	10.92186	53.57272	2563.57520	-43.09895	47.32685	2518.80200	253.00391	44.62815	2560.92139	233.49286	53.04832	2656.53418	193.55064	59.55733	2730.39136	188.85109	47.00542	2750.86255	261.12750	53.76630	2676.33472	292.39059	45.00385	2609.43408	313.43451	43.43755	2517.15625	-17.65040	41.26701	2552.04468	-4.00879	50.43448	2645.56299	40.84916	52.63009	2729.35107	41.96871	51.06208	2743.01123	-29.46644	52.82823	2669.59497	-59.55093	42.00496	2606.11450	-74.96272	45.18990																																																	2521.47803	280.89633	3.61350	5425.29736	-546.99615	-461.76746	2452.05054	-119.32849	819.62531	4279.45557	-569.41986	694.74976	
3	0.017	2631.78735	105.89672	1741.02576	2510.38672	106.46663	1670.94238	2731.70068	97.05067	1660.57434	2651.73413	302.52774	1429.88782	2775.32886	31.95465	1280.56079	2674.23364	393.79660	1101.36743	2558.31055	389.97433	866.34167	2622.71118	-108.70020	1429.29663	2607.33472	-187.06822	1098.57788	2493.86304	-148.63866	870.39868	2564.47534	258.49042	960.28314	2550.60107	-33.02161	955.01526	2781.08154	101.52060	951.94482	2541.09546	228.39241	578.78326	2617.26758	269.08081	475.72977	2640.47168	205.47353	239.25089	2714.68848	280.86990	83.39913	2777.94189	216.14337	51.20735	2567.75830	270.12296	46.58343	2521.92017	8.43355	628.95752	2623.13745	-47.11395	473.71228	2619.13965	24.10329	331.95657	2704.99414	-43.45986	69.13041	2769.03491	10.87844	53.61235	2563.54614	-43.10061	47.30831	2518.79565	253.01193	44.66286	2560.95776	233.43523	53.05900	2656.51782	193.53955	59.53894	2730.34521	188.88054	47.01689	2750.83740	261.13922	53.76592	2676.27368	292.30823	45.01053	2609.53369	313.36017	43.38864	2517.16699	-17.61152	41.22636	2552.10596	-4.04220	50.48812	2645.55029	40.83507	52.66517	2729.36426	41.98925	51.08930	2743.02783	-29.44340	52.82422	2669.60034	-59.58655	42.05481	2606.09180	-74.98940	45.21225																																																	2521.54175	280.71292	3.62264	2452.01709	-119.34733	819.63049	
4	0.025	2632.09155	106.22906	1741.30615	2510.29565	106.33105	1671.00720	2731.54419	96.85467	1660.62634	2651.55762	302.54724	1429.73633	2775.35620	32.05625	1280.56555	2674.21289	393.93439	1101.63928	2558.74976	390.42990	866.43073	2622.99585	-108.72751	1429.25171	2607.76733	-187.07074	1098.53198	2495.01978	-149.12143	870.12848	2564.55908	258.33646	960.23187	2550.76904	-33.18415	954.89661	2781.07813	101.58204	951.96948	2540.85181	228.18259	578.82208	2616.97437	268.89084	475.74786	2640.46704	205.46008	239.21823	2714.61670	280.73053	83.34054	2777.93481	216.13031	51.21508	2567.82910	270.20398	46.78331	2521.71655	8.33773	628.94757	2623.12695	-47.18992	473.72534	2619.37817	24.12216	331.93118	2705.01196	-43.41345	69.08865	2769.01514	10.90856	53.58567	2563.50708	-43.11557	47.27303	2518.79541	253.02812	44.60954	2560.97925	233.45329	53.03922	2656.50366	193.52039	59.53967	2730.37598	188.80388	47.06438	2750.81250	261.15472	53.76324	2676.32422	292.36795	45.06225	2609.48413	313.43262	43.53931	2517.29395	-17.54761	41.40349	2552.09155	-4.04625	50.49487	2645.56396	40.86513	52.70939	2729.41919	42.04254	51.12175	2743.04395	-29.47211	52.85427	2669.65649	-59.66834	42.14200	2606.10645	-75.04462	45.20287																																																	2521.48926	280.80759	3.63688	2987.15088	170.41870	395.01486	2452.00610	-119.47515	819.41974	
5	0.033	2631.51685	105.52129	1741.04321	2510.54688	106.64743	1671.32239	2731.39014	96.65418	1660.66748	2651.30444	302.49908	1429.87415	2775.33667	32.20067	1280.57092	2674.05200	393.95474	1101.81323	2558.74048	390.70035	866.50983	2623.26318	-108.76930	1429.13867	2608.18945	-187.24719	1098.53723	2495.73755	-149.20633	869.87976	2564.41528	258.14337	960.21136	2551.22461	-33.43653	954.86420	2781.08862	101.63993	952.00879	2540.60278	227.90916	578.89063	2616.61035	268.62967	475.60709	2640.57617	205.29901	239.03354	2714.56787	280.73013	83.34138	2777.92627	216.12263	51.22485	2567.73779	270.11429	46.65501	2521.46387	8.16285	628.85907	2623.08911	-47.27034	473.75943	2619.08911	23.93028	331.90363	2704.97363	-43.39733	69.13958	2769.02271	10.89018	53.58824	2563.57813	-42.97613	47.45675	2518.76025	252.99300	44.66454	2560.86841	233.46727	53.02628	2656.42773	193.49384	59.51021	2729.85718	188.72316	47.29906	2750.83130	261.08514	53.81380	2676.28613	292.28467	45.03397	2609.52979	313.36826	43.58504	2517.33472	-17.64178	41.41798	2552.14966	-4.05258	50.53284	2645.64087	40.81402	52.83232	2729.38696	41.96673	51.12851	2742.99634	-29.44787	52.79429	2669.66992	-59.74314	42.16600	2606.07983	-75.04474	45.20628																																																	2521.55151	280.68127	3.65005	2987.12500	170.18137	395.18488	2451.94531	-119.58983	819.37823	
6	0.042	2631.86646	105.80564	1741.31873	2510.37207	106.42784	1671.33264	2731.29126	96.50965	1660.69141	2651.11084	302.41342	1429.98071	2775.38965	32.29903	1280.60339	2673.98145	393.97308	1101.93018	2558.69141	390.84885	866.53003	2623.44385	-108.86849	1429.13647	2608.81616	-187.22258	1098.78503	2496.51392	-149.68156	869.44336	2564.53931	258.04001	960.06628	2551.60938	-33.62482	954.98303	2781.09253	101.70085	952.02258	2540.59961	227.74397	579.01367	2616.35815	268.43607	475.51569	2640.98804	205.51994	239.06271	2714.34766	281.83643	82.80170	2777.92114	216.12749	51.22985	2567.69751	270.09219	46.76063	2521.34961	8.05744	628.63397	2623.09155	-47.32470	473.72565	2619.19849	23.85766	331.97229	2705.02759	-43.42977	69.15379	2768.99194	10.91122	53.56420	2563.47583	-43.07954	47.32222	2518.72485	252.95171	44.69203	2560.92358	233.41019	53.06100	2656.45654	193.48256	59.50513	2730.37671	188.76122	47.09887	2750.85352	261.10779	53.88963	2676.28589	292.28177	45.11910	2609.42114	313.36929	43.53615	2517.30859	-17.55828	41.46734	2552.11475	-4.06865	50.49823	2645.56958	40.76784	52.83875	2729.39282	41.95105	51.20363	2743.06226	-29.50599	52.84765	2669.62524	-59.65458	42.06724	2606.19287	-74.73524	45.06847																																																	2521.57056	280.68921	3.66418	2986.99854	170.03687	395.10068	2451.87500	-119.67499	819.24982	
7	0.050	2631.59253	105.49226	1741.33582	2510.33179	106.25963	1671.32813	2731.25415	96.38809	1660.69983	2650.85376	302.43735	1430.02515	2775.42651	32.42215	1280.61633	2673.80542	394.05508	1102.06909	2558.59375	391.26782	866.74878	2623.65991	-108.98150	1429.17566	2609.75562	-187.05574	1098.58044	2497.52686	-150.04181	869.00928	2564.33008	257.94183	959.99854	2552.20947	-33.89093	955.04138	2781.08301	101.74570	952.05804	2540.46118	227.36568	578.95837	2616.20020	268.39270	475.55087	2641.01343	205.51544	239.03252	2714.46851	280.60635	83.25945	2777.92627	216.12062	51.22191	2567.72681	270.09171	46.76089	2521.42651	8.08188	628.51941	2622.99316	-47.31366	473.63776	2619.25098	23.77577	331.85733	2705.03931	-43.41279	69.15522	2769.00342	10.88245	53.57618	2563.46582	-43.07263	47.32266	2518.71167	252.96103	44.73183	2560.89941	233.40897	53.04249	2656.47290	193.49506	59.50536	2730.30859	188.87665	47.06990	2750.81055	261.07822	53.86481	2676.31177	292.33240	45.16784	2609.47900	313.35434	43.53045	2517.32031	-17.34124	41.38834	2552.17871	-4.04188	50.47586	2645.49487	40.72541	52.69447	2729.44385	42.03397	51.26521	2743.05542	-29.46153	52.84214	2669.66431	-59.68248	42.14814	2606.24463	-74.80189	45.08828																																																	2521.66943	280.49728	3.71328	2986.95459	169.93068	395.11771	2451.83008	-119.59778	819.35583	
8	0.058	2631.34326	105.21342	1741.32434	2510.16016	106.06496	1671.28357	2731.24146	96.36157	1660.70496	2650.31006	302.41620	1430.16333	2775.47412	32.64217	1280.63062	2673.64478	394.11996	1102.26184	2558.52393	391.38455	866.72607	2623.78101	-108.97404	1429.16711	2610.01074	-187.12115	1098.62036	2498.54004	-150.60439	868.76324	2563.87939	257.76480	960.04199	2552.23340	-33.98418	954.99194	2781.08447	101.80681	952.07263	2540.45581	227.00961	578.90027	2616.12451	268.24026	475.43323	2640.91113	205.46953	239.00291				2777.92505	216.12033	51.23136	2567.64526	270.05896	46.68791	2521.46509	7.81597	628.61871	2622.98706	-47.37645	473.64539	2619.34473	23.78829	331.84445	2704.98218	-43.42458	69.13785	2769.00317	10.90387	53.57352	2563.45190	-43.08216	47.29858	2518.68286	252.94539	44.72725	2560.89185	233.41029	52.99916	2656.41602	193.47905	59.47861	2730.34985	188.86633	47.08125	2750.84668	261.11780	53.88125	2676.27124	292.31299	45.21139	2609.40894	313.36313	43.51653	2517.18799	-17.61900	41.27695	2552.11914	-4.05972	50.56142	2645.53027	40.84776	52.82903	2729.46143	41.95502	51.33788	2743.05127	-29.45026	52.80169	2669.67749	-59.73819	42.05165	2606.20361	-74.76929	45.08109																																																	2521.58643	280.61646	3.59619	2986.97998	169.97874	395.11130	2451.63794	-119.66832	819.29462	
